<?xml version="1.0" encoding="utf-8"?>
<!-- Generator: Adobe Illustrator 17.0.0, SVG Export Plug-In . SVG Version: 6.00 Build 0)  -->
<!DOCTYPE svg PUBLIC "-//W3C//DTD SVG 1.1//EN" "http://www.w3.org/Graphics/SVG/1.1/DTD/svg11.dtd">
<svg version="1.1" id="Layer_1" xmlns="http://www.w3.org/2000/svg" xmlns:xlink="http://www.w3.org/1999/xlink" x="0px" y="0px"
	 width="2000px" height="2000px" viewBox="0 0 2000 2000" enable-background="new 0 0 2000 2000" xml:space="preserve">
<g>
	<g>
		<path fill="#8DC63F" d="M218.919,1501.833c16.518,0,26.771,7.519,26.771,19.936c0,9-5.354,15.721-14.012,17.772
			c10.709,1.823,17.088,9.455,17.088,20.164c0,13.67-11.05,21.873-29.05,21.873h-35.429v-79.744H218.919z M197.73,1534.87h20.506
			c8.544,0,13.67-3.987,13.67-10.708s-5.126-10.367-13.67-10.367H197.73V1534.87z M197.73,1569.616h20.506
			c10.481,0,16.746-4.101,16.746-11.62c0-7.063-6.266-11.278-16.746-11.278H197.73V1569.616z"/>
		<path fill="#8DC63F" d="M358.036,1563.578l-7.633,17.999h-14.012l35.201-79.744h13.784l34.86,79.744h-14.354l-7.633-17.999
			H358.036z M378.086,1516.188l-15.037,35.429h30.075L378.086,1516.188z"/>
		<path fill="#8DC63F" d="M524.838,1569.502h49.1v12.076h-67.327v-9.683l48.644-57.985h-47.163v-12.076h65.276v9.683
			L524.838,1569.502z"/>
		<path fill="#8DC63F" d="M682.751,1569.502h49.1v12.076h-67.327v-9.683l48.644-57.985h-47.163v-12.076h65.276v9.683
			L682.751,1569.502z"/>
		<path fill="#8DC63F" d="M839.98,1563.578l-7.633,17.999h-14.012l35.201-79.744h13.784l34.858,79.744h-14.352l-7.633-17.999H839.98
			z M860.03,1516.188l-15.037,35.429h30.075L860.03,1516.188z"/>
		<path fill="#8DC63F" d="M1006.096,1563.578l-7.633,17.999h-14.012l35.201-79.744h13.784l34.86,79.744h-14.354l-7.633-17.999
			H1006.096z M1026.146,1516.188l-15.038,35.429h30.075L1026.146,1516.188z"/>
		<path fill="#8DC63F" d="M1196.935,1557.427c-1.139,0.114-2.392,0.114-3.646,0.114h-18.911v24.037h-13.443v-79.744h32.353
			c20.392,0,32.126,9.911,32.126,27.227c0,12.759-5.924,21.759-16.519,25.86l17.885,26.657h-15.265L1196.935,1557.427z
			 M1193.29,1545.465c12.303,0,19.366-5.24,19.366-16.063c0-10.481-7.063-15.493-19.366-15.493h-18.911v31.556H1193.29z"/>
		<path fill="#8DC63F" d="M1334.456,1574.97c0,4.443-3.076,7.633-7.177,7.633c-4.101,0-7.177-3.19-7.177-7.633
			c0-4.329,3.076-7.405,7.177-7.405C1331.38,1567.566,1334.456,1570.641,1334.456,1574.97z"/>
		<path fill="#8DC63F" d="M1488.147,1581.578l-42.492-57.188v57.188h-13.443v-79.744h13.215l42.72,57.302v-57.302h13.215v79.744
			H1488.147z"/>
		<path fill="#8DC63F" d="M1617.925,1513.909v21.531h38.961v12.076h-38.961v21.987h44.885v12.076h-58.327v-79.744h56.96v12.076
			H1617.925z"/>
		<path fill="#8DC63F" d="M1790.422,1513.909v67.669h-13.443v-67.669h-25.176v-12.076h63.909v12.076H1790.422z"/>
	</g>
	<g>
		<g>
			<g>
				<path fill="#E6E7E8" d="M1138.401,1134.08c37.578-9.51,64.631-33.516,76.726-65.992l-246.173,117.928h74.579
					c51.935,0,83.096,21.467,83.096,56.782c0,37.393-31.161,58.86-83.096,58.86H935.507v-99.623l-109.41,52.42v136.555h230.593
					c112.873,0,182.812-51.266,182.812-134.362C1239.502,1192.94,1200.724,1145.852,1138.401,1134.08z"/>
			</g>
			<g>
				<path fill="#E6E7E8" d="M1110.01,1047.521c0,33.931-25.621,54.013-66.477,54.013H935.507V995.586h108.025
					C1084.389,995.586,1110.01,1014.283,1110.01,1047.521z"/>
				<path fill="#E6E7E8" d="M1338.595,649.051v359.9l-123.468,59.137c4.616-12.418,7.063-26.083,7.063-40.648
					c0-74.787-66.477-121.182-173.118-121.182H826.097v348.197l-155.714,74.579V649.051H1338.595z"/>
			</g>
			<g>
				<path fill="#E6E7E8" d="M867.117,699.601V576.115c0.003-16.04,3.24-31.225,9.093-45.069
					c8.776-20.758,23.484-38.476,41.976-50.966c18.504-12.488,40.685-19.759,64.733-19.766c16.04,0.003,31.225,3.24,45.069,9.093
					c20.757,8.775,38.476,23.484,50.966,41.976c12.488,18.504,19.758,40.685,19.766,64.733v123.486h36.932l0-123.486
					c0.003-21.037-4.274-41.174-12.01-59.456c-11.607-27.433-30.949-50.716-55.315-67.181
					c-24.354-16.466-53.839-26.103-85.407-26.095c-21.037-0.003-41.174,4.274-59.456,12.01
					c-27.433,11.607-50.716,30.949-67.181,55.315c-16.466,24.354-26.103,53.839-26.095,85.407v123.486H867.117L867.117,699.601z"/>
			</g>
		</g>
		<g>
			<g>
				<path fill="#8DC63F" d="M1129.423,1128.095c37.578-9.51,64.631-33.516,76.726-65.992L959.976,1180.03h74.579
					c51.935,0,83.096,21.467,83.096,56.782c0,37.393-31.161,58.86-83.096,58.86H926.529v-99.623l-109.41,52.42v136.555h230.593
					c112.873,0,182.812-51.266,182.812-134.362C1230.524,1186.955,1191.746,1139.867,1129.423,1128.095z"/>
			</g>
			<g>
				<path fill="#8DC63F" d="M1101.032,1041.536c0,33.931-25.621,54.013-66.477,54.013H926.529V989.601h108.025
					C1075.411,989.601,1101.032,1008.297,1101.032,1041.536z"/>
				<path fill="#8DC63F" d="M1329.617,643.065v359.9l-123.468,59.137c4.616-12.418,7.063-26.083,7.063-40.648
					c0-74.787-66.477-121.182-173.118-121.182H817.119v348.197l-155.714,74.579V643.065H1329.617z"/>
			</g>
			<g>
				<path fill="#8DC63F" d="M858.139,693.616V570.13c0.003-16.04,3.24-31.225,9.093-45.069
					c8.776-20.758,23.484-38.476,41.976-50.966c18.504-12.488,40.685-19.759,64.733-19.766c16.04,0.003,31.225,3.24,45.069,9.093
					c20.757,8.775,38.476,23.484,50.966,41.976c12.488,18.504,19.758,40.685,19.766,64.733v123.486h36.932l0-123.486
					c0.003-21.037-4.274-41.174-12.01-59.456c-11.607-27.433-30.949-50.716-55.315-67.181
					c-24.354-16.466-53.839-26.103-85.407-26.095c-21.037-0.003-41.174,4.274-59.456,12.01
					c-27.433,11.607-50.716,30.949-67.181,55.315c-16.466,24.354-26.103,53.839-26.095,85.407v123.486H858.139L858.139,693.616z"/>
			</g>
		</g>
	</g>
</g>
</svg>
